<svg id="Layer_1" data-name="Layer 1" xmlns="http://www.w3.org/2000/svg" viewBox="0 0 1127.55 1238.4">
  
  <g id="colorable">
    <polygon id="cap_mid" points="368.02 218.56 397.42 145.97 490.22 145.97 548.62 148.87 596.62 145.97 644.62 145.97 673.72 148.87 713.42 153.97 724.02 168.26 731.42 209.37 731.42 216.26 704.42 218.56 624.22 216.76 496.02 219.66 405.92 223.66 368.02 225.26 368.02 218.56" style="fill: #fff"/>
    <path id="bowtie_l" d="M480.8,1152.8a51.14,51.14,0,0,0,2.2,4.8h0c-.8-.5-7.1.4-9,.4-5.7,0-39.9,9-56.5,14.9-4.9,1.8-13.3,4.7-18.6,6.5s-10.4,3.8-11.6,4.4-8.5,2.9-16.4,5.1-17.3,4.9-20.9,6.1c-8.3,2.6-33.4,7.6-42.5,8.5-3.8.3-10.8,1.3-15.5,2.1-14.4,2.5-35.9,1.7-47-1.8-10.5-3.2-14.7-13.4-17.9-42.8-2.4-22.5-1.3-76.5,2.4-115.5.8-8.3,1.7-19.5,2-25,1.6-27.5,3.3-37.8,7.9-49.1,5.6-13.7,11.8-20.6,22.8-25.3,7-3,14.7-4.2,31.1-4.8,16.6-.7,25,.4,35,4.3,6.7,2.7,26.2,8.6,34.2,10.4,7.4,1.7,36.4,7.1,41,7.7,3,.4,5.6,1.9,10.5,6.2,15.2,13.2,27.7,21.6,33.9,22.7a18,18,0,0,1,6.6,3,66.12,66.12,0,0,0,8.5,5c3,1.4,7.1,3.5,9,4.5a40.67,40.67,0,0,0,9.3,3c3.1.7,5.7,1.6,5.7,2.2s-1.8,2.9-4,5.3c-4.3,4.6-8.4,13-10.2,20.4-.5,2.5-1.3,13.5-1.7,24.5l-.6,20-29,.1c-21.3.1-32.7.6-43,1.9-7.7.9-16.9,1.9-20.5,2s-12.7.6-20.2,1c-20,.9-31.5,2.8-39,6.6s-11.8,6.7-11.8,8c0,1.8,7.5.6,13-2.2,7.7-3.7,18.9-5.7,37.5-6.4,15.3-.6,42.2-2.4,66-4.5a246.37,246.37,0,0,1,39.3-.3c9.7.7,8.6-1.5,10.2,20.3C474.3,1124.2,477.9,1145,480.8,1152.8Z" transform="translate(-29.28 -14.34)" style="fill: #fff"/>
    <path id="flower_mid" d="M887,118.1c0,5.2-.3,6.1-2.5,7.5-1.7,1.1-2.4,2.3-2,3.4.9,2.7-4,7.8-8.7,9-5.1,1.4-15.6-.1-20.2-2.9-7-4.4-11.3-13.9-8.2-18.6a9.49,9.49,0,0,0,1.6-4.4c0-4,16.1-13.9,20-12.4.8.3,4.1,1.3,7.3,2.1,5,1.3,6.4,2.2,9.3,6S887,113,887,118.1Z" transform="translate(-29.28 -14.34)" style="fill: #fff"/>
    <path id="nose" d="M642.1,719.5c-5.3,16.7-12.6,29-24.1,40.5-7,7.1-10.2,9.4-18.5,13.6-14.1,7.2-20.4,8.8-35.5,8.8-14.2.1-17.9-.9-34-8.8-14.6-7.2-20.7-14.2-26.8-30.6-13.3-35.7-9.9-65.7,9.7-86.4,6.8-7.2,20.6-17.2,29.6-21.6,10.3-5,36.5-7.4,49.9-4.6,25,5.3,45.4,27,49.5,52.6C643.5,693.7,643.7,714.6,642.1,719.5Z" transform="translate(-29.28 -14.34)" style="fill: #fff"/>
    <path id="flower_long" d="M820,115.8c0,.4-3.2,2.7-7.1,5.1a110.59,110.59,0,0,0-12.2,9.1c-3.9,3.5-6.3,4.9-9.6,5.4-18.5,2.9-41.7,17.2-58.8,36.2-3.7,4.2-13.2,14.4-21.1,22.8s-16.3,18-18.8,21.6c-9.8,14.5-7.7,13-17.6,13-4.8,0-9-.5-9.3-1-.9-1.5,7.4-19.3,14.3-30.6,13-21.1,37.2-42.7,70.3-62.7,24.2-14.6,37.3-20.7,47.7-22.3,9.8-1.4,14.4-1.2,19,1.2C818.6,114.4,820,115.5,820,115.8Z" transform="translate(-29.28 -14.34)" style="fill: #fff"/>
    <path id="petal_1" d="M854.7,153c-4.3,7.2-7.4,10.2-13.7,13.5-18.9,9.6-34.1,6.4-40.6-8.4-2.8-6.3-2.7-9.7.8-17S825,120,832.3,120c2.3,0,3.1.7,4.7,4.5,2.9,6.8,6.7,11.1,14.3,16.2C858.7,145.7,858.8,146,854.7,153Z" transform="translate(-29.28 -14.34)" style="fill: #fff"/>
    <path id="petal_2" d="M908,169.3c0,6.1-2.4,11.8-7,17.1s-7.9,6.6-15.4,6.6c-5.5,0-6.9-.4-9.5-2.6-7-5.9-10.4-15.9-10.4-30.8,0-11.6.7-13,7.7-14.4a39.58,39.58,0,0,0,10.3-4.1c2.6-1.7,5.3-3.1,5.8-3.1s2.8,2.1,5,4.8C905.4,155.6,908,160.7,908,169.3Z" transform="translate(-29.28 -14.34)" style="fill: #fff"/>
    <path id="petal_3" d="M959.6,111.5c-.7,5.5-5.4,15-9.2,18.9-4.6,4.6-10.8,6.8-20.4,7.4-7.6.4-9.7.1-19-2.8-16.6-5.1-15.7-4.2-15.8-15.4,0-11-.3-10.6,10.6-16.1,12.6-6.4,29.9-8,43.1-4a25.59,25.59,0,0,1,8.4,4.6C960,106.8,960.2,107.6,959.6,111.5Z" transform="translate(-29.28 -14.34)" style="fill: #fff"/>
    <path id="petal_4" d="M905.6,87c-4.5,6.5-12.5,15-14.2,15-.6,0-3.8-1.6-7-3.5s-6.6-3.5-7.6-3.5c-2.7,0-3.8-3.2-3.8-11.6,0-16.4,6.1-29.3,16.2-34.3,5.3-2.6,9.3-2.7,13.8-.2,4.8,2.5,6.8,5.7,7.8,12.3C912.2,70.3,910.2,80.3,905.6,87Z" transform="translate(-29.28 -14.34)" style="fill: #fff"/>
    <path id="petal_5" d="M862,91l-6.5,2.9c-4.6,2.1-8.7,5.1-13.7,10-3.9,3.9-7.8,7.1-8.8,7.1-5.7,0-14-2.7-19.2-6.2-6.9-4.6-10.2-9.9-11.8-18.6-1-5.6-.9-6.7,1-11a28.45,28.45,0,0,1,13.5-13.9c9.6-5,13.7-5.3,21-1.9a32.11,32.11,0,0,1,7.7,5.1c3.4,3.4,10.6,14.2,14.2,21.2Z" transform="translate(-29.28 -14.34)" style="fill: #fff"/>
    <path id="cap_top" d="M728.1,139.9c-1.4.9-6.5,4.7-11.4,8.6s-9.8,7.7-11,8.6c-1.8,1.4-3.5,1.5-10.2.9-12.3-1.3-49.5-1.1-71.3.2a533.26,533.26,0,0,1-73.7-.1c-15-.9-34.7-1.2-68.8-.9-26.3.3-48,.1-48.3-.3s.5-2.7,1.6-4.9,3.2-7.3,4.6-11.3c2.8-7.8,4.8-11.8,14.4-30.2,12.2-23.4,16.4-29.8,28.5-43.5,9.3-10.5,13.7-14.2,27-22.7,14.8-9.3,28.3-14.6,57-22.3,5-1.3,13.4-1.1,32.1,1,34.8,3.8,48.2,11.1,78.6,43.1,17.2,18.1,23.4,25.3,25.5,29.4a28.47,28.47,0,0,0,3.8,5.5c4.4,5,15.8,21.6,18.1,26.5a79.63,79.63,0,0,0,4.1,7.9C730.5,138.2,730.5,138.2,728.1,139.9Z" transform="translate(-29.28 -14.34)" style="fill: #fff"/>
    <path id="cap_bottom" d="M826.4,296.5c-.8,6.3-2.6,12-14.8,47.5-3.4,9.9-4.7,14.7-5.1,18.1-.9,7.5-8.8,21.9-12.1,21.9-.8,0-2.8,1.3-4.5,3-4.9,4.7-10.2,6-36.4,9.4-17.7,2.3-63.6,4-111.5,4-37.5,0-46.2-.2-55.3-1.7-8.8-1.4-16.8-1.7-44-1.6-35.5.1-56.4-.9-107.7-5.1-6.3-.5-17.7-1.2-25.4-1.5-14.4-.6-20.9-1.6-25.5-4-3.9-2-8.8-12.7-12.7-28-1.8-7.2-4.1-15.1-4.9-17.6-2-5.5-3.2-10.8-5.1-22.9-.8-5.2-2.2-12.4-3-16-5.8-24.9-5.7-41.6.2-48.1,4.8-5.3,21.9-9.3,50.5-11.9,32.6-2.9,87.9-5.3,131.4-5.7,20.9-.2,38.5-.5,39-.8s43.1-.3,94.5-.1c82,.2,95,.4,105.5,1.9,6.6.9,15.6,2.2,20,2.8,17.2,2.3,26.9,10.7,29,24.9C829.1,268.9,828.1,283.6,826.4,296.5Z" transform="translate(-29.28 -14.34)" style="fill: #fff"/>
    <path id="bowtie_r" d="M892.5,1085c-8,44.1-13.8,77.1-15,85-4.4,29.6-9.9,45.2-20.3,57.5-8.2,9.7-13.2,13.4-22.6,16.7-12.8,4.4-16.4,4.1-57.1-5.3-14.3-3.2-28.2-6.4-31-7-13.2-3-42-15.2-76.5-32.6-30.6-15.5-38.7-20.5-42.3-26.3-1.4-2.3-1.4-3.3.3-11.7a155.42,155.42,0,0,0,2.5-21.5c.7-15.8,2.4-33.9,3.5-35.8.5-1.1,2.2-1.4,6.6-1.2,4.1.3,12.4-1,26.9-3.9,20.5-4.1,21.5-4.2,41-4.3,21.7,0,31.3,1.4,49,7.2,9.4,3.1,31.6,14.1,41.4,20.6,6.1,4.1,7.2,4.5,9.4,3.5,1.8-.8,2.3-1.7,1.9-3.1-1.1-4.4-31.7-21.3-49.3-27.2-34-11.5-60.4-11.7-107.9-.7a60.29,60.29,0,0,1-11.4,1.1h-6.9l.6-3.8c.3-2,1.2-7.5,2.1-12.2,3.1-17.5,3.1-21.9.1-35.2a189.59,189.59,0,0,0-5.2-19.2c-1.8-4.8-2.3-7.4-1.6-8.4.5-.9,5.2-2.8,10.4-4.3s12.7-3.9,16.7-5.3a75.28,75.28,0,0,1,8.5-2.6c1.2,0,17.1-4.7,27-8,5.1-1.7,6.6-1.8,13.8-.8,8.3,1.2,14.2.9,56.4-2.7,16.4-1.4,35.9-3.5,38-3.9,2.4-.6,26,.2,37.3,1.3,13.4,1.2,20.6,2.8,29.2,6.4,21.8,9.2,28.2,18,29.7,40.9C898.4,1049.3,897.4,1058.1,892.5,1085Z" transform="translate(-29.28 -14.34)" style="fill: #fff"/>
    <path id="button" d="M632.4,1056.2l-1.8,13.1c-1,7.3-2.1,14.8-2.6,16.7-1.7,6.6-4.8,35.5-5.4,50.3-.9,21.5-3.8,34-9.3,39.9-4.6,4.9-17,5.9-52.8,4.4-23.4-1-34.4-3.4-52.9-11.7-12.9-5.7-15.5-8.3-18.8-19-3.2-10.1-6.6-27.1-7.2-35.9-.3-3.6-.8-10.3-1.1-15s-.6-18.4-.7-30.5c0-19.8.2-22.8,2.2-30a82.61,82.61,0,0,1,3.5-10.5c2.2-4.1,8.5-10.9,11.8-12.6,4.1-2.2,11.3-3.4,16.7-2.8,2.5.3,9,.9,14.5,1.4s22.6,1,38,1c44.8,0,53.2,1.5,57.4,10.5a51.78,51.78,0,0,1,3.1,8.8c.5,2.3,1.9,8.2,3.1,13Z" transform="translate(-29.28 -14.34)" style="fill: #fff"/>
    <path id="hair_l" d="M375.2,390.9l-9.5,9.1c-14.9,14.2-16.2,16.1-33.3,49.5-7.8,15.3-9.7,20.1-12.9,32-2,7.7-4.8,17.2-6.1,21.1a115.46,115.46,0,0,0-3.7,16.3c-.8,5.1-1.9,9.7-2.4,10.2-.7.7-2.3.4-5-1-8.3-4.2-30.5-5.3-41.4-2.1-15.4,4.6-29.1,20.9-35.5,42.2-2.5,8.3-2.8,10.8-2.8,22.8a170.22,170.22,0,0,0,5,39.5c3.1,12.1,13.1,32.3,23.6,47.6,9,13.2,38.4,35.3,55.3,41.5,2.6.9,3.1,1.8,4.7,9,4.8,21.2,6.8,31.2,6.8,34a24.19,24.19,0,0,0,.9,6c.5,1.6,1.9,8.5,3.1,15.4,2.5,14.1,5.5,29.6,6.9,35.3.8,3.4.7,3.9-1.5,5.4-1.3.8-2.4,2.1-2.4,2.9,0,2.3-8.2,9.4-14.5,12.5-9.7,4.7-18.7,6.2-31.3,4.9-10.5-1.1-32.8-6.2-34.6-8.1a4.52,4.52,0,0,0-2.6-.9,6.07,6.07,0,0,1-3.5-2c-1-1.1-2.3-2-3-2-1.3,0-9-10.1-15.5-20.3a96.82,96.82,0,0,1-7.3-15.5c-2.8-8-3.1-9.7-3-21.2.1-8-.3-12.7-1-13.2-1.5-.9-3.6.4-10.9,6.7s-11,8.4-19.3,10.1c-18.4,4-49.6-1.4-59.5-10.2a35,35,0,0,0-5.7-4.2c-2.4-1.3-7.5-9.7-9.1-15.2-2.4-7.7-3.2-42.3-1.1-47.6a9.07,9.07,0,0,0,.7-3.2c-.4-1.9,6.8-24.7,9.8-30.7,3.6-7.3,13.6-20.1,16.4-21,2.4-.8,4.2-4.7,3.3-7.1-.8-2-4.3-1.5-14.3,2.2-6.7,2.5-8.9,2.8-20,2.8-11.8.1-12.8-.1-18-2.7C53.7,627.6,38.4,605,37.4,577c-.3-9.5.4-14.5,2.6-19a23.64,23.64,0,0,0,1.4-4.8c.4-1.7,1.2-3.4,1.7-3.7a2.93,2.93,0,0,0,.9-2.1c0-2,15.3-19.5,22-25.2,13.5-11.6,18.6-14.7,33-20.5,16.6-6.5,19.6-7.4,28.3-8.2,11.9-1.1,11.8-1.4-4-21.1-5-6.4-10.4-15.4-12.6-21.4-3.8-10-3.7-29.7.2-42.7,2.2-7.5,8.5-17.6,13.3-21.4,11-8.6,23.4-12.4,41.3-12.4,14,0,17.6.9,37,8.5,17.4,6.8,20.9,8.5,27.7,13.7,12.5,9.3,13.8,8.7,13.8-6.4,0-12.9,2-23,7-34.5,7.9-18.3,18.7-26.2,40-29.3a68.06,68.06,0,0,1,12-.9c1.9.2,6.2.6,9.5,1,12.7,1.4,32.4,10.2,39.6,17.6,3.2,3.3,5.4,4.8,7.2,4.8,2.1,0,2.8.6,3.3,2.7,2.8,12.2,7,26,9.5,32Z" transform="translate(-29.28 -14.34)" style="fill: #fff"/>
    <path id="hair_r" d="M1145.1,535.7c-3,6.3-10,14.3-12.6,14.3-.8,0-2.2,1.4-3.1,3.2-2.2,4.2-10.5,13-17.4,18.3-6.4,4.9-16.5,10.5-19,10.5a5.91,5.91,0,0,0-3.4,1.9,9.09,9.09,0,0,1-4.2,2.5c-2.8.7-3.1,2.7-.6,4.8,1.2,1.1,3.8,1.6,8.5,1.6,16.7.1,28.2,8.6,33.9,25,1.9,5.6,2.3,8.7,2.2,19.2,0,14.2-.9,18.2-6.6,29.6-4.7,9.6-13.1,18.8-20.1,22.2a54.64,54.64,0,0,1-12.6,3.6c-4.2.7-8.3,1.6-8.9,2s-1.2,2.3-1.2,4.3c0,3.1.8,4.3,5.8,8.9a35.38,35.38,0,0,1,8.8,11.6c2.8,6,2.9,7,2.8,19.3-.1,11.8-.4,13.8-3.3,22.3-7.5,22.2-14.6,32.4-28.9,42.1-18.7,12.5-30.1,17.3-41.2,17.2-7.9,0-17.6-1.8-22.2-4.2s-7.6-2.4-9.9-.3c-1.7,1.5-1.6,2,1.9,8.6,3.2,6.1,3.7,8.1,4,15.2a38.86,38.86,0,0,1-8.1,26.6c-6.8,9-24.7,26.2-33.7,32.5-11.3,7.7-17.1,10.2-28.6,12.6-25.6,5.1-56.3-.3-78.8-13.8-10.2-6.2-10.6-6.6-16.1-15.2-5-7.7-6.7-11.4-6.2-13.4.5-2.2,8.4-22.2,11.3-28.4,1.8-3.9,8-23.5,12.9-40.3,1.9-6.9,5.5-17.7,8-24a173.84,173.84,0,0,0,6.4-21,142.81,142.81,0,0,1,3.6-14c1.5-4.1,5.6-18.4,7.3-25.5.8-3.1,4.1-5.5,7.7-5.5a61.08,61.08,0,0,0,9.3-2c12.5-3.5,31.7-17,39.5-27.9,3.7-5.2,12.9-22.4,16.5-31.1,11-26.1,21.5-58.2,24.6-74.9,5.5-29.4-4-48.2-28.8-56.8-10-3.4-18.8-4.4-30.4-3.3s-20.9,3.8-27.6,8c-7.1,4.5-7.6,4-7.6-8.4,0-12.1-1.5-20.2-7.1-37.9-10-31.7-26.7-58.9-42.6-69.3a77.26,77.26,0,0,1-10.4-8,55.05,55.05,0,0,0-9.7-6.8c-6.4-3.2-6.9-4.2-4.3-7.4,3-3.8,8.9-15.9,10.1-20.9.9-3.4,2.7-5.7,9.8-12.3,4.8-4.4,11.4-10,14.7-12.5,7.8-5.9,28.4-16,35.5-17.4,3-.6,6.4-1.3,7.5-1.5s9-.3,17.5-.1c11.4.2,17.5.9,23.1,2.3,17.3,4.6,32.7,16.1,39.1,29,2.9,5.8,3.2,7.4,3.1,14.3-.1,4.3-.9,9.4-1.8,11.4a27.34,27.34,0,0,0-1.5,4.6c0,1.2,3.8,4.9,5,4.9.6,0,3.6-2.8,6.8-6.1,8.8-9.4,25.3-16.9,37.5-16.9,9.9,0,28.8,5,39.6,10.5,6.9,3.5,20.2,15.4,23.7,21.3s4.4,9.6,4.4,19.3c0,5.7-.4,7.2-3.6,12.5a52.41,52.41,0,0,1-6.7,9.1l-3.1,3.3,2.1,2.7c1.4,1.9,2.8,2.7,4.4,2.6,1.3-.2,6-.7,10.4-1.1a57,57,0,0,1,16.9.5c9.1,1.4,22.8,6.4,25.4,9.2,7,7.8,17.5,26.3,21.6,38.1C1151.3,505,1150.7,523.5,1145.1,535.7Z" transform="translate(-29.28 -14.34)" style="fill: #fff"/>
    <path id="face" d="M950.4,528c-5.7-4-17.1-7-26.4-7-17.2.1-27.8,3.3-36.4,11.3-4.9,4.5-6,6.2-7.9,12.2-2.1,6.6-2.4,7-5.4,7.3-2.5.3-3.5-.2-4.8-2.2-1.4-2.2-1.5-3.1-.4-6.3,2-6.1,1.3-38.8-1.1-49-2.7-11.6-6.4-22.8-12.3-37.8s-16.5-31.9-24.9-39.4a286.73,286.73,0,0,0-28.9-21.7c-3.1-1.9-6.1-3.4-6.5-3.3a44.89,44.89,0,0,0-5.9,3,28.77,28.77,0,0,1-10.5,3.4c-3,.4-10.9,1.5-17.5,2.5s-19.6,2.2-29,2.5-19,.8-21.5,1c-47,2.9-107.5,2.8-127.5-.1-8.9-1.4-16-1.6-37.5-1.1-14.6.3-33,.1-41-.4s-21.9-1.3-31-1.9-23.2-1.4-31.5-2-21.1-1.3-28.5-1.5-17-1.1-21.2-1.7l-7.7-1-9.1,7.7c-15.1,12.8-23.1,24.2-37.4,53.5-6.1,12.4-8.7,19.4-13.2,35-6.6,22.8-6.7,23.5-9,44.9-1.6,14.9-1.9,16.4-3.9,17.3-1.6.7-3,.6-5.2-.6-2.6-1.3-3.1-2.2-3.5-6.4-.6-6.1-3.7-10.7-8.6-12.8-2.1-.9-8.2-1.8-14.2-2.1-9.4-.5-11.3-.3-17,1.7-5.3,1.9-7.8,3.7-13.5,9.4a67.37,67.37,0,0,0-19.2,44.1c-1.3,24,6,52.7,18.5,72.5,2.3,3.6,5.5,9,7.3,12,7.1,12.4,28.3,29.5,47.2,37.9,9.8,4.4,12.5,6.6,13.5,10.9,3.6,14.7,7.4,32.6,9.2,43.2,1.2,6.9,3,16.2,4.1,20.6a78.94,78.94,0,0,1,1.9,11.6,44.81,44.81,0,0,0,1.5,8.8c.8,3,2.6,10.6,4,16.8,2.3,10.3,4.7,18,10.3,33.3,1.8,4.8,17.4,39.6,20.1,44.6.5,1,2.9,6.1,5.4,11.3,7.3,15.6,14.6,24.4,42.3,51.1a162.86,162.86,0,0,0,36.9,26.6c16.5,8.7,24.2,12.3,29.9,13.8,4.1,1.2,6,2.2,6.3,3.6.6,2.2,3.1,2.4,11.8.8,4.4-.8,8.9-.7,17.9.2,7.1.8,26.5,1.3,47.1,1.4,29.4.1,36.4.4,43.9,1.9,8.4,1.7,9.1,1.7,10.2.1.7-1,3.6-2,7.1-2.5,9.2-1.3,13.2-2.4,25.3-7,3-1.1,8-2.7,11-3.4,8.9-2.2,26.3-7.7,29.5-9.3,5.6-2.8,42-24.6,49.3-29.5,12.1-8.1,26.3-20,33.3-27.9,7.3-8.2,19.5-25.1,22.8-31.7,1.9-3.8,5.7-9.9,14.2-23.1,2-3.1,2.7-5.1,2.3-6.8-.5-1.9,0-3,2.4-5.1,4.3-3.8,15-30.3,23.6-58.7,1.6-5,3.6-11.4,4.7-14.3a35.86,35.86,0,0,0,1.9-7c0-.9,1.2-4.2,2.6-7.2,2.9-6.2,4.2-10.6,7.9-26.4,1.4-6,3.4-13.4,4.4-16.5,3.1-8.9,5.9-19.2,6.6-24.3.7-5.4,1.4-5.8,9.9-5.8,11.4,0,22.5-5.1,36.1-16.7,8.9-7.5,10.9-10.2,16.8-21.8,11.6-22.8,23.4-54.2,29.5-78.2,3.2-12.8,3.7-16.3,3.7-26.3C965.5,542.3,962.9,536.8,950.4,528ZM318.2,633.4c-2.4,5.4-7.9,2.3-11-6.2-2.5-6.7-8.4-16.2-13.2-21a50.85,50.85,0,0,0-9.4-6.6c-6-3.3-8.8-4.4-17.2-6.6-4.8-1.2-8.6-5.6-6.3-7.1,1.7-1.1,9.5-.3,16.9,1.8,17.7,4.9,33.2,19.7,39.6,38C319.1,629.9,319.2,631.3,318.2,633.4Zm298-181.7c8.1-6.9,11.6-8.1,27.3-10,18.3-2.3,34.5,2.6,51.2,15.2,9.1,6.8,13.3,12,18.7,23,6.2,12.5,7.6,21.2,4.1,25-2.9,3.3-5.3,2.6-7.1-1.9-1.7-4.1-8.4-9.9-14-12-6.9-2.7-25-4.5-54.7-5.5-7.8-.3-15.5-.8-17.2-1.1-9.5-2-16.5-9.4-16.5-17.6C608,460.4,609.8,457.2,616.2,451.7Zm-12,88.4c3.4-24.6,13.1-36.2,30.6-36.6,3.4-.1,6.5-.5,7-.9,1.6-1.8,11.9.2,17.5,3.4,7.5,4.2,9.8,7.1,16.1,20.4,9.5,20.1,9.1,18.6,9,33.1,0,11.3-.3,13.9-2.6,20.2-5.3,14.7-13.9,26.9-22.6,32.1-4,2.3-5.8,2.7-12.2,2.7-6.6,0-8.5-.5-16-4-11.3-5.3-14.5-7.9-18.4-15-4.1-7.4-5.9-14.2-8.2-30.8C602.7,552.8,602.7,551.3,604.2,540.1ZM532.8,589c-4.7,10.1-17.6,20.9-27.6,23.1-6.6,1.5-16.9,1.4-23.5,0-8.2-1.9-13.3-5.8-19.3-14.9-3.1-4.6-6-9.7-6.6-11.5a34.36,34.36,0,0,0-2.5-5.4c-2-3.1-2.9-14.9-2.2-28,.7-11.2.7-11.3,5.8-20.3a108.06,108.06,0,0,0,5.1-9.6c0-.4,2-3,4.5-5.9,4.1-4.9,9.2-8,19.8-12.3,1.5-.7,2.7-1.6,2.7-2.2,0-1.6,7.8-1.1,15,.9a40.39,40.39,0,0,1,20.7,14.4C534.9,531.4,539.6,574.1,532.8,589ZM418.6,482.3c12.1-25.9,32.9-40.4,61.7-43.2,11.5-1.1,12.3-1.2,20.5-.1,11.9,1.6,20.3,6.5,25.8,15.2,4.5,7,2.7,18.6-3.8,24.4-3.5,3.3-11.7,7-17.8,8.2-3,.6-11.8,1.6-19.5,2.2-33.6,2.8-44.1,6.6-60.4,21.6-8.1,7.6-8.2,7.6-12.8,6.2-2.7-.9-3.9-2-4.1-3.5C407.8,510.8,414.4,491.3,418.6,482.3ZM337.4,635.8c-2.4-5.9-2.6-7.7-2.2-16.1s.8-10.2,4.1-16.8c4.7-9.5,17.8-23.9,25.1-27.6a36.22,36.22,0,0,0,8.8-6.6l3.7-4,7.6.5c10.7.7,21.6,6.3,30.7,15.6,9.4,9.6,12.6,17.3,13.5,31.7.5,8.4.2,11.3-1.6,17.8-2.7,10-5.1,14.6-9.6,18.5-4.5,4.1-7.5,5.6-18.3,9.3-15.6,5.4-31,4.8-44.9-1.8C347.6,653.2,341.1,645.3,337.4,635.8ZM792.5,796c-2.9,20.5-13.9,51.6-21.6,61-1.6,1.9-2.9,4.1-2.9,4.9s-1.5,3.7-3.4,6.5c-5.8,8.8-11.5,18-17.7,28.6a96.28,96.28,0,0,1-6.6,9.7c-1.8,2.3-3.3,4.4-3.3,4.8s-3.9,6.1-8.7,12.8c-10.9,15.2-27.9,32.2-39.1,39-9.4,5.7-22.7,10.8-29.7,11.4-2.7.3-5.4.9-5.9,1.4a5.9,5.9,0,0,1-3.3.9,33.42,33.42,0,0,0-8,1.9c-9.3,2.9-14.7,4.1-27.6,5.6-6.7.8-16,2-20.7,2.6-12.5,1.7-55.9,1.7-64,0-11.9-2.5-36.4-9.9-45.4-13.7a119.43,119.43,0,0,1-28.3-17.6c-2.9-2.4-8.5-7-12.5-10.3-24.7-20.1-49.3-48.3-64.6-74.1-4.5-7.6-13.2-31.2-15.1-40.9-.7-3.3-2.2-10.7-3.6-16.5-4.2-18.5-7.8-50.3-7.3-63.5.6-14.9,5.5-28.4,15.9-44.6,4.4-6.8,10.1-15,12.7-18.1s5.8-7.2,7.1-8.9c6.5-8.3,25.5-14.7,46.6-15.5,12-.5,25.4,2.7,39.8,9.3,6.5,3,12.5,5.3,13.4,5.1s2.4-2.4,3.4-5c5.1-13.1,16.7-26,33.6-37.5,10.9-7.5,11.7-7.8,25.8-10.8,9.3-2,12.8-2.3,23-1.9,17.3.8,22.4,1.8,31.8,6.2,15.2,7.1,30.3,20.5,36.2,32.1,2.5,4.9,6.5,17,6.5,19.6a8.07,8.07,0,0,0,1.4,4.1c1.4,1.8,1.6,1.8,5.3-1.7,6.4-6,31.7-16.7,48.1-20.3a103.14,103.14,0,0,1,17-1.8c8.7-.1,10.8.3,21,3.7,11.3,3.7,13.8,5.2,22,12.9,9.7,9,21,26.6,25.2,38.9,2.6,7.6,3.4,13.2,5.9,37.7C795.7,762.7,794.7,780.7,792.5,796Zm68.2-143c-2.9,8.6-4.3,11.5-7.7,15.4-12.1,13.7-32.1,16.8-54.4,8.2-9.2-3.5-13.1-5.9-19.3-12-6.7-6.4-8.7-11.9-8.6-23.6.1-14.9,5.2-28.7,13.8-37.4,4.1-4.1,18.7-12.2,24.7-13.6,8.6-2.1,26.1-.1,33.1,3.7,6.7,3.7,14.2,14,17.4,24.1C862.9,628.1,863.4,644.8,860.7,653Zm59.8-77c-1.1,0-4.8,1.7-8.3,3.7-12.4,7.3-21.7,23.5-24.6,42.8-1.1,7.7-1.3,8-4,8.3-1.6.2-3.3-.1-3.9-.7-2.6-2.6.9-21.5,6-31.4,6.6-13.2,15.3-22.8,24.7-27.3,7.1-3.4,13.3-4.3,15.3-2.3C928,571.4,924.5,576,920.5,576Z" transform="translate(-29.28 -14.34)" style="fill: #fff"/>
    <path id="eyebroe_l" d="M521,461.6c0,6.4-2.4,10.3-9.2,14.7s-11.7,5.5-33.3,7.2c-15.6,1.2-35.3,5.8-44,10.2a69.38,69.38,0,0,0-7.9,5.5c-2.7,2.1-5.3,3.5-5.8,3-.9-.9,2.1-10.1,5.4-16.6,4.3-8.5,13.1-20.7,18.5-25.5,5.6-5,17.5-10.9,26.7-13.2,10.7-2.7,27.1-3,36.1-.7,2.6.7,5.7,2.7,8.7,5.8C520.6,456.3,521,457.1,521,461.6Z" transform="translate(-29.28 -14.34)" style="fill: #fff"/>
    <path id="eyebrow_r" d="M704,488c-7.6-4.9-26.3-8-48.4-8-28.6-.1-37.8-2.3-38.8-9.2-.8-5.3.9-9.4,5.8-13.7,5.9-5.2,13.7-8.1,24.4-9.1,13.7-1.2,15.3-1.1,22.1,1.1,8,2.6,10.2,3.8,18.5,9.6,11.3,7.9,18,16.2,21.9,27.4C711.4,491.3,710,491.8,704,488Z" transform="translate(-29.28 -14.34)" style="fill: #fff"/>
    <path id="cheeel_l" d="M414.4,639.3c-3.4,5.1-11.5,10.1-22.6,13.8-8.1,2.8-10.2,3.1-16.9,2.6-9.9-.6-16.8-3.7-22-9.6-7.3-8.2-8.4-11.2-8.4-23.1,0-12.7,1.3-16.1,10.4-27.3s16.6-17,24.8-19c3-.7,4.8-1.8,4.9-2.7s.2-1.8.2-2.3c.3-1.3,3.7-.7,9,1.8,7.2,3.3,19.8,13.8,22.1,18.4C423.3,606.3,422.6,626.6,414.4,639.3Z" transform="translate(-29.28 -14.34)" style="fill: #fff"/>
    <path id="pupil_l" d="M508.7,596l-2.4,8.5-5.4,1.8c-4.9,1.7-5.6,1.7-8,.3a11.19,11.19,0,0,0-4.2-1.6c-2.6,0-8.2-6.6-10.1-11.9-2.5-7-1.6-15.5,2.7-25.8,2.7-6.5,3.9-8.1,6.7-9.5,5.4-2.6,10-2.3,14.7,1.2C511.2,565.2,513.4,579,508.7,596Z" transform="translate(-29.28 -14.34)" style="fill: #fff"/>
    <path id="eye_around_l" d="M523.1,590.5c-4.3,6.4-5.1,5.7-4.4-3.8,1-13.7-2.3-23.6-9.8-30a28,28,0,0,0-18.7-6.7c-5.2,0-5.8.2-9.6,4.3-8.9,9.4-12.9,31-7.8,42.1,2.5,5.5,2.2,6.8-.8,4.1-3.8-3.4-9.1-12.5-11.7-19.8-3.1-8.9-4.1-28.5-1.8-35.3,2.7-8,11.8-24.5,15.2-27.4,4.2-3.8,11.8-7.6,16.6-8.5,2.1-.4,4-1.1,4.3-1.6.7-1.3,4.1-1.1,10,.4a28.73,28.73,0,0,1,9.7,5.2c8,6.6,11.6,15.9,14.3,36.2C531,567.8,529.2,581.6,523.1,590.5Z" transform="translate(-29.28 -14.34)" style="fill: #fff"/>
    <path id="cheeek_r" d="M855,637.4c0,10.7-2.9,18.3-9.8,25.7-8.6,9.3-11.3,10.4-25.7,10.3-10.5,0-12.8-.4-18.8-2.7-16.4-6.4-23.2-15.6-22.2-30.3.7-11.8,3.2-19.4,8.8-26.5,1.2-1.6,3.2-4.1,4.4-5.7,3.4-4.5,19.7-11.8,27-12.1a79.21,79.21,0,0,1,9.9,1c9.4,1.3,11.9,2.5,16.1,7.7C851.5,613.3,855,624.3,855,637.4Z" transform="translate(-29.28 -14.34)" style="fill: #fff"/>
    <path id="pupil_r" d="M657.9,580.8a42.27,42.27,0,0,1-8.4,20.2c-1.9,2.6-3.5,5.6-3.5,6.5,0,2.5-4.7,1.6-13.5-2.7-7.9-3.7-8.6-4.7-11.6-16.6-1.9-7.5-1.9-8.3-.4-16.8,2.5-14.3,3.2-15.5,12.5-20.2,4.1-2,12.3-1,16.4,2.2C656.2,558.6,659.5,569.2,657.9,580.8Z" transform="translate(-29.28 -14.34)" style="fill: #fff"/>
    <path id="eye_around_r" d="M669.3,588.4c-5.8,10.3-8.7,11.8-5.3,2.8,1.5-3.9,2-7.7,2-15,0-8.6-.3-10.4-2.9-15.9a26.28,26.28,0,0,0-8.1-10.2c-6-4.8-10.2-6.1-19.1-6.1-5.7,0-7.1.4-10.6,2.9-6.5,4.7-10.3,11.5-10.3,18.5a10.83,10.83,0,0,1-1,4.6c-2.7,4-4.6-7.6-3.6-21.6,1.2-17,6.5-28.7,16-35.2,4-2.6,5.8-3.2,10.5-3.2,3.1-.1,6.7-.7,8.1-1.5,3.4-2,4.7-1.8,10.7.9,4.1,1.9,5.9,3.6,8.9,8.3,5.2,8.2,11,21.7,12.5,29.1C679.6,559.7,676.7,575.3,669.3,588.4Z" transform="translate(-29.28 -14.34)" style="fill: #fff"/>
    <path id="mouth" d="M786.4,730.5a91.3,91.3,0,0,0-6.7-23c-3.2-6.5-11.8-18.6-17.2-24.3-5.8-6.2-14.9-11.2-25.7-14.2-7.5-2.1-11.8-2.3-22.8-.9-16,1.9-44.8,13.9-53,22-9.5,9.5-9.3,9.1-9.5,17.6-.5,15.4-5.9,29.9-16.7,44.5-6,8-14.1,16.6-20.3,21.4-4.6,3.5-18.1,9.9-26,12.2-11.7,3.6-36,2.8-48.8-1.4-6.7-2.2-21.4-9.6-26.3-13.2-7.1-5.2-14-15.5-17.5-26.2-6.7-20.4-7.9-27.2-7.9-44V685.5l-3.2-1.7a132.63,132.63,0,0,0-38.7-12.9c-8.6-1.3-16.2-.6-31.3,3.1-14.2,3.5-18.1,7.2-37.1,34.7-7.2,10.6-9.3,14.8-12.8,25.8-4.6,14.4-4.8,25.9-1,52.5,7.7,53.7,14.1,72.3,35,102,8.5,12.2,35.6,41.2,46,49.3,2.9,2.3,8.4,6.7,12,9.7,13.2,11,15.7,12.8,23.6,16.7,13.2,6.6,32.5,12.5,52.3,15.9,16.3,2.8,49.8,1,87.2-4.8,17.2-2.6,47.5-10.1,55.5-13.7q28.05-12.75,60.1-62.3c16.6-25.5,31.6-49.9,35.4-57.5,3.5-6.8,13-34.3,14.4-41.8a288.75,288.75,0,0,0,3.5-29C789.7,760.6,789.4,755.8,786.4,730.5Zm-52.5,33.8c-5.5-2.5-10.1-4.4-10.2-4.2-.8.9-9.8,18.1-15.5,29.4a173.68,173.68,0,0,1-33.6,46c-13.1,13-20.7,18.5-36.3,26.3-15.4,7.8-36,12.2-57,12.2-10.4,0-14.2-.4-37.3-3.6a210.53,210.53,0,0,1-63.8-19.8c-27.5-13.8-36.3-22.2-50.1-47.5-4.7-8.8-12.9-25.9-15.2-31.8-.7-1.8-1.5-2.4-2.7-2-17.8,5.9-22.1,6.8-24.9,5.5-5-2.4-3.4-4,7.2-7,5.5-1.6,11.6-3.9,13.7-5.3,4.9-3.3,8.8-8.5,9.5-13,.7-4,2-5,5.8-4.1s4.1,4.5,1.1,10.4c-1.4,2.8-2.6,6.4-2.6,7.9,0,4.5,3.8,14,8.9,22.3.5.8,3.7,7.3,7.2,14.5,6.9,14.6,11.9,21.6,20.5,29.1,6.7,5.8,13.5,9.8,28.4,17.1,24.1,11.6,51.5,17.9,87.1,19.9,19.6,1.1,42.6-3.4,59.2-11.7,23.5-11.8,41.5-28.6,59.1-55.3,5.1-7.8,20.1-37.2,22-43.4.6-1.7-.2-2.7-4.3-5.7-5.3-3.9-9.2-9-8.4-11.2,1-2.5,4.3-1.2,10.3,4.1,7,6.3,16.5,12.1,27,16.5,10.1,4.3,10.5,4.5,10.8,7C750.3,770.4,744.9,769.5,733.9,764.3Z" transform="translate(-29.28 -14.34)" style="fill: #fff"/>
  </g>
  <g id="non-colorable">
    <path id="brow_l" d="M526.6,454.2c-5.5-8.7-13.9-13.6-25.8-15.2-8.2-1.1-9-1-20.5.1-28.8,2.8-49.6,17.3-61.7,43.2-4.2,9-10.8,28.5-10.4,31,.2,1.5,1.4,2.6,4.1,3.5,4.6,1.4,4.7,1.4,12.8-6.2,16.3-15,26.8-18.8,60.4-21.6,7.7-.6,16.5-1.6,19.5-2.2,6.1-1.2,14.3-4.9,17.8-8.2C529.3,472.8,531.1,461.2,526.6,454.2Zm-14.8,22.1c-6.7,4.4-11.7,5.5-33.3,7.2-15.6,1.2-35.3,5.8-44,10.2a69.38,69.38,0,0,0-7.9,5.5c-2.7,2.1-5.3,3.5-5.8,3-.9-.9,2.1-10.1,5.4-16.6,4.3-8.5,13.1-20.7,18.5-25.5,5.6-5,17.5-10.9,26.7-13.2,10.7-2.7,27.1-3,36.1-.7,2.6.7,5.7,2.7,8.7,5.8,4.4,4.3,4.8,5.1,4.8,9.6C521,468,518.6,471.9,511.8,476.3Z" transform="translate(-29.28 -14.34)"/>
    <path id="outline" d="M1152.3,485.5c-3-9.4-11.7-24.9-17.9-32.1a63.13,63.13,0,0,1-4.2-5q-1.8-2.55-13.2-7.2c-10-4.1-13.8-5-24.8-5.8-10.1-.8-11.4-1.6-8.8-5.6,2.2-3.4,4.6-13.7,4.1-17.8-1.6-13.3-2.2-15-6.9-21.9-7.3-10.6-19.9-20.5-32.4-25.6-11.8-4.8-28.5-8.5-38.2-8.5-9.9,0-16,1.8-28,8.4-3.6,2-7,3.6-7.6,3.6s-1.6-3.8-2.3-8.7c-.8-5.8-2.2-10.5-3.9-13.6-3.6-6.6-18.7-20.8-25.6-24.1a106.69,106.69,0,0,0-52.1-10.2c-21.4,1.3-37.1,7.3-58.7,22.2-7.5,5.3-9.8,6.3-9.8,4.5a65.31,65.31,0,0,1,2.6-7.7c4.7-12.6,10.1-32.8,10.9-40.9,1.2-12.7.7-26.3-1.2-32.3-2.1-6.6-10.9-16.3-17.5-19.1-6-2.7-18.4-4.8-46-7.6-4.9-.6-5.9-1-6.2-2.8-.2-1.2-.9-5.1-1.6-8.7-4.8-27.7-5.9-33.7-6.5-35.5a101.79,101.79,0,0,0-5.1-11.8c-2.2-4-1.1-6.6,5.1-11.7a85.26,85.26,0,0,1,24.2-13.6c8.7-3.2,9.9-2.7,10.5,4.9,1.1,12.8,12.1,24.6,24.8,26.6,10.6,1.7,25.3-2.6,35.4-10.4,4.3-3.2,6.6-4.3,6.6-3,0,2.1,3.3,16,4.5,18.7,2,4.9,8.2,11.6,12.9,14,3.2,1.7,5.8,2.1,12.3,2.1,7.4,0,8.6-.3,13.1-3.1,9.3-6,15.6-16.7,15.4-25.8-.2-7.1-3.1-14.1-9.1-22.3-5.1-6.8-6.1-9.1-4-9.1a62.17,62.17,0,0,1,8.4,2.5c10.5,3.5,14.1,3.9,24.1,2.5,11.2-1.4,14.2-2.8,20.9-9.1,8.6-8.2,13.1-22.9,9.2-30.4s-10-10.8-24.5-13c-7.6-1.2-11.4-1.3-17.6-.4-4.3.5-8,.8-8.3.5s.1-3.4,1-6.8c2.8-11.4,3.1-17.2,1.2-25-1.6-6.6-2.3-7.8-7.1-12.5-6.8-6.5-13-8.3-21.5-6.3-4.6,1.1-6.4,2.3-12,8-7.1,7.2-9.3,12.1-10.8,23.5-.9,7.3-2.9,7-8.2-1.2-8.6-13.4-16.2-19.3-26.7-20.9-9.3-1.4-25.4,5.9-31.9,14.4-6.6,8.7-6.9,19.8-1,31.3,3.5,6.9,3.4,8.9-.4,8.9-8.1,0-33.3,11.3-51.2,23-5,3.3-9.6,6-10.2,6s-1.6-2.3-2.2-5.1c-.9-3.7-3.2-7.8-8.5-14.7-4-5.3-8.5-11.5-10-13.7-9.4-14-15-20.7-33.8-40.5-14.7-15.5-24.5-23.4-39.4-31.6C625,18.6,608.1,15,576,14.4c-12.3-.2-12.7-.2-26,4.1-44,14.2-68,31.2-88.9,62.9-5,7.7-9.1,14.4-9.1,15s-1.4,2.9-3,5a20,20,0,0,0-3,4.7c0,.4-2.7,6.3-6,13.2s-6.8,14.7-7.9,17.4-4.3,9.9-7.1,15.9c-7.5,15.6-10,21.4-10,23.1,0,.8-1.1,3.3-2.5,5.6a169.19,169.19,0,0,0-7,17c-2.5,7.1-5,13.8-5.7,15s-3,7.1-5.3,13.2c-3.4,9.1-4.4,11.1-6.5,11.7-1.4.4-7.7,1.9-14.1,3.3-16.2,3.6-23.3,7.8-26.5,15.5-1.5,3.4-2.3,24.7-1.1,26.7.3.5,1.3,6.2,2.2,12.8,2.2,16.6,4,25,7,32a51.77,51.77,0,0,1,2.5,7.2c0,1.5-2.2,1.7-3.5.4-.9-.9-11.7-7.1-19.5-11.2-15.5-8.1-45.4-9.1-64-2-9.4,3.6-26,19.7-26,25.3a3.24,3.24,0,0,1-.9,2.3c-1.1.6-6.4,17.5-8,25.3A57,57,0,0,0,235,385c0,2.3-.5,4-1.1,4s-4.8-1.8-9.2-3.9c-29.6-14.3-40.3-17.4-59.7-17.4-10.5,0-15.5.5-22.3,2.1-10.2,2.5-12.8,3.8-20.5,9.7-11.9,9.1-16.5,16-20.3,30.7-2.4,9.6-2.2,35.2.4,39.1a11.9,11.9,0,0,1,1.7,5c0,2.8,6.5,13.5,14.4,23.7,6.4,8.2,6.3,9.2-1.2,10.3-4,.7-24.1,7.9-33.2,11.9a59.84,59.84,0,0,0-10.5,6.7c-13.1,10.9-21,17.7-22.2,19.1C39.9,538.7,37,543.5,32.7,556c-3.3,9.7-4.3,19.1-2.6,25a47.76,47.76,0,0,1,1.4,9.1,12.53,12.53,0,0,0,2.3,7.4,11,11,0,0,1,2.2,5.7c0,1.6,1.3,4.9,3,7.3s3,4.8,3,5.4c0,1.7,11.6,15.6,16.1,19.3,8.8,7.1,18.5,12.7,25.8,14.9,6.3,1.9,8.9,2.1,18.7,1.7,6.3-.3,11.4-.2,11.4.2s-1.6,3.2-3.5,6.1c-4.7,7.3-8.6,17.7-12.5,34.2l-3.4,13.9,1.1,21.1c.9,17.1,1.5,22.3,3.2,26.6,7.4,19.5,24.1,30.1,51.9,33.1,18.6,2.1,34.9-.8,43.8-7.7,5.6-4.2,7.8-3.8,6.9,1.3a27.71,27.71,0,0,0,1.1,9.3c4.8,16.2,6.7,20.8,13.5,31.7,7.7,12.3,12.8,17.2,24.3,23.1,8,4.1,26.4,8.1,40.9,8.9,12.1.7,13.1.6,21-2a67.32,67.32,0,0,0,12.3-5.4c8.5-5.6,13.4-9.6,14-11.4a2.43,2.43,0,0,1,2-1.8c.8,0,1.4.1,1.4.2,0,1.7,13.7,37.1,16.4,42.5a55.39,55.39,0,0,1,2.6,5.8c0,.8,12.5,27,16.7,35,5.4,10.4,10,16.8,21.3,29.3,5.6,6.3,9.9,11.6,9.5,12-.6.7-12.3-1.3-28-4.8-5.5-1.2-19.4-5.3-30.9-9.2-25.8-8.5-35.1-9.8-57.1-7.8-12.2,1-15.3,1.7-24.2,5.1-9.3,3.7-10.7,4.6-16.5,10.7-5.4,5.8-7,8.3-10.5,17.2-4.9,12.5-6.8,23.6-8.3,49-.6,9.6-1.5,21.3-2,26-2,17.6-3.5,54.5-3.5,83.5,0,26,.3,31.9,2.3,44.5,2.4,15.7,3.9,21,7.6,26.9,3.5,5.4,6.9,7.8,14.6,10.1,19.2,5.7,43.7,4.9,87-3,2.5-.4,7.1-1.3,10.4-1.9a85.67,85.67,0,0,0,10-2.5c2.2-.8,10-3.1,17.1-5.1,18.3-5.1,28.8-8.5,46-14.8,19.2-7,42.7-13.9,57.7-16.7,5.9-1.1,13.1-4.8,13.2-6.7a34.19,34.19,0,0,0,7.8,9.6c3.3,2.6,24.5,12.3,32.8,14.9,9.6,3.1,16.2,4,34.2,4.9,23.2,1.1,47.5.9,52.6-.6a23.43,23.43,0,0,0,7.6-4.1c1.8-1.7,3.7-3,4.1-3s2.5,1.6,4.7,3.5c4.3,4,56.4,30.3,77.3,39.1,7.2,3.1,16.7,7.1,21.3,9,8.9,3.8,17,6,35.2,9.9,6.3,1.3,16.2,3.6,22,5s16.1,3.5,23,4.6c11.3,2,13.4,2,21.4.9,12.8-1.8,26.6-7.1,26.6-10.3,0-.6,1.9-3,4.3-5.3s4.9-5.1,5.9-6.1a35.74,35.74,0,0,1,4-3.5,19.16,19.16,0,0,0,4.6-6c3-6.2,8.2-22.9,8.2-26.5,0-1.8.4-3.4.8-3.7s1.6-4.9,2.6-10.3,2.6-13.9,3.6-18.8,2.9-14.4,4-21,2.2-13,2.4-14.2.7-4.3,1.1-7,2.4-15.2,4.6-27.8c5.3-31.8,6.7-49.3,4.5-60.5-2.2-11.7-8-23.6-13.7-28.2-10.2-8.2-29.1-15.9-43.9-17.8-19.8-2.5-41-2.4-70,.4-15.1,1.4-35,3.3-44.3,4.2-17.2,1.6-22.8,1.4-20.8-.9.5-.7,6.3-4.6,12.8-8.6,32.7-20.3,48.6-32.7,61.1-47.8,8.4-10.1,12.8-16.6,23.7-34.8,8.4-14,10.2-16.5,12-16.5.6,0,2.7,2.5,4.6,5.6,6,9.8,8.2,11.8,21.8,18.8,19,9.8,25.5,11.7,47.7,14.1,19.1,2,42.3-1.4,52.5-7.7,2-1.3,6.1-3.8,9-5.5a82.71,82.71,0,0,0,8.6-6c1.7-1.6,4.7-3.9,6.5-5.3,6.2-4.7,21.9-21.5,26.5-28.4,7.3-11,8.6-16,8-29.4-.6-12.7-1.3-11.9,8.8-10.1,14,2.6,27.9-1.8,50-15.7,13-8.2,15.9-10.8,23.5-20.9,9.5-12.5,16.1-29.5,17.9-46,1.2-11.4,1.2-12-.1-18-1.5-7-4.8-13.2-10.3-19.3-2.6-2.9-4.5-5.8-4.2-6.6s2.1-1.6,4.1-1.9c9.1-1.5,26.3-13.3,30.1-20.8a35.7,35.7,0,0,1,5.4-6.6c3.2-3.3,4.1-5.1,5.6-11.8a88.71,88.71,0,0,0-.3-37c-3.4-13.7-6.2-21.6-8.1-22.2a49.33,49.33,0,0,1-6.4-4.9,46.27,46.27,0,0,0-10.2-6.5c-3-1.2-5.5-2.8-5.5-3.5s1.9-2.4,4.3-3.9c12.6-8.3,19.7-16.5,19.7-22.7,0-3.6,1.2-5,2.5-2.8,1.2,2,3.2.9,9.2-4.7,7.4-7.1,9.8-11.7,12.3-23.6C1158.1,513.3,1157.3,500.9,1152.3,485.5ZM751.4,203c.9,4.7,2.3,12,3.1,16.2s1.5,8.2,1.5,8.8-9.7,1-29.5,1c-24.1,0-29.7-.3-30.1-1.4-.9-2.2,8.3-14.3,20.6-27.1,6.3-6.7,14.4-15.3,17.9-19.3s7-7.2,7.8-7.2,2.1,1.6,2.9,3.6C747.1,181.2,748.6,187.9,751.4,203Zm103.3-50c-4.3,7.2-7.4,10.2-13.7,13.5-18.9,9.6-34.1,6.4-40.6-8.4-2.8-6.3-2.7-9.7.8-17S825,120,832.3,120c2.3,0,3.1.7,4.7,4.5,2.9,6.8,6.7,11.1,14.3,16.2C858.7,145.7,858.8,146,854.7,153ZM908,169.3c0,6.1-2.4,11.8-7,17.1s-7.9,6.6-15.4,6.6c-5.5,0-6.9-.4-9.5-2.6-7-5.9-10.4-15.9-10.4-30.8,0-11.6.7-13,7.7-14.4a39.58,39.58,0,0,0,10.3-4.1c2.6-1.7,5.3-3.1,5.8-3.1s2.8,2.1,5,4.8C905.4,155.6,908,160.7,908,169.3Zm40.9-69.8a25.59,25.59,0,0,1,8.4,4.6c2.7,2.7,2.9,3.5,2.3,7.4-.7,5.5-5.4,15-9.2,18.9-4.6,4.6-10.8,6.8-20.4,7.4-7.6.4-9.7.1-19-2.8-16.6-5.1-15.7-4.2-15.8-15.4,0-11-.3-10.6,10.6-16.1C918.4,97.1,935.7,95.5,948.9,99.5ZM889.2,49.1c5.3-2.6,9.3-2.7,13.8-.2,4.8,2.5,6.8,5.7,7.8,12.3,1.4,9.1-.6,19.1-5.2,25.8-4.5,6.5-12.5,15-14.2,15-.6,0-3.8-1.6-7-3.5s-6.6-3.5-7.6-3.5c-2.7,0-3.8-3.2-3.8-11.6C873,67,879.1,54.1,889.2,49.1ZM867,99.7c.8.3,4.1,1.3,7.3,2.1,5,1.3,6.4,2.2,9.3,6s3.4,5.2,3.4,10.3-.3,6.1-2.5,7.5c-1.7,1.1-2.4,2.3-2,3.4.9,2.7-4,7.8-8.7,9-5.1,1.4-15.6-.1-20.2-2.9-7-4.4-11.3-13.9-8.2-18.6a9.49,9.49,0,0,0,1.6-4.4C847,108.1,863.1,98.2,867,99.7ZM803,75.2a28.45,28.45,0,0,1,13.5-13.9c9.6-5,13.7-5.3,21-1.9a32.11,32.11,0,0,1,7.7,5.1c3.4,3.4,10.6,14.2,14.2,21.2L862,91l-6.5,2.9c-4.6,2.1-8.7,5.1-13.7,10-3.9,3.9-7.8,7.1-8.8,7.1-5.7,0-14-2.7-19.2-6.2-6.9-4.6-10.2-9.9-11.8-18.6C801,80.6,801.1,79.5,803,75.2Zm-52.9,59.5c24.2-14.6,37.3-20.7,47.7-22.3,9.8-1.4,14.4-1.2,19,1.2,1.8.8,3.2,1.9,3.2,2.2s-3.2,2.7-7.1,5.1a110.59,110.59,0,0,0-12.2,9.1c-3.9,3.5-6.3,4.9-9.6,5.4-18.5,2.9-41.7,17.2-58.8,36.2-3.7,4.2-13.2,14.4-21.1,22.8s-16.3,18-18.8,21.6c-9.8,14.5-7.7,13-17.6,13-4.8,0-9-.5-9.3-1-.9-1.5,7.4-19.3,14.3-30.6C692.8,176.3,717,154.7,750.1,134.7ZM435,152c1.1-2.2,3.2-7.3,4.6-11.3,2.8-7.8,4.8-11.8,14.4-30.2,12.2-23.4,16.4-29.8,28.5-43.5,9.3-10.5,13.7-14.2,27-22.7,14.8-9.3,28.3-14.6,57-22.3,5-1.3,13.4-1.1,32.1,1,34.8,3.8,48.2,11.1,78.6,43.1,17.2,18.1,23.4,25.3,25.5,29.4a28.47,28.47,0,0,0,3.8,5.5c4.4,5,15.8,21.6,18.1,26.5a79.63,79.63,0,0,0,4.1,7.9c1.8,2.8,1.8,2.8-.6,4.5-1.4.9-6.5,4.7-11.4,8.6s-9.8,7.7-11,8.6c-1.8,1.4-3.5,1.5-10.2.9-12.3-1.3-49.5-1.1-71.3.2a533.26,533.26,0,0,1-73.7-.1c-15-.9-34.7-1.2-68.8-.9-26.3.3-48,.1-48.3-.3S433.9,154.2,435,152Zm-33.3,81.9c.1-1.4,2.9-9.7,6.3-18.5s7-18.4,8-21.4c2.8-8.5,10.6-26.1,12.4-27.8,1.4-1.4,6.1-1.7,31.9-2.2,51.6-1.1,67.3-1,96.7.6,16.5.9,34.4,1.3,42.5,1,7.7-.3,25.3-1.1,39-1.7,18.8-.9,28.8-.9,39.9,0,8.2.6,15.2,1.4,15.7,1.7s-2,3.8-5.6,7.7c-8.4,9.2-17.7,23.2-25.4,38.3-3.3,6.5-7.1,13.1-8.3,14.5l-2.3,2.7-40.5.6c-77.4,1.3-121.6,2.4-140,3.5-23.1,1.3-62.3,3.4-67,3.5C401.9,236.5,401.5,236.2,401.7,233.9Zm-43.1,20c4.8-5.3,21.9-9.3,50.5-11.9,32.6-2.9,87.9-5.3,131.4-5.7,20.9-.2,38.5-.5,39-.8s43.1-.3,94.5-.1c82,.2,95,.4,105.5,1.9,6.6.9,15.6,2.2,20,2.8,17.2,2.3,26.9,10.7,29,24.9.6,3.9-.4,18.6-2.1,31.5-.8,6.3-2.6,12-14.8,47.5-3.4,9.9-4.7,14.7-5.1,18.1-.9,7.5-8.8,21.9-12.1,21.9-.8,0-2.8,1.3-4.5,3-4.9,4.7-10.2,6-36.4,9.4-17.7,2.3-63.6,4-111.5,4-37.5,0-46.2-.2-55.3-1.7-8.8-1.4-16.8-1.7-44-1.6-35.5.1-56.4-.9-107.7-5.1-6.3-.5-17.7-1.2-25.4-1.5-14.4-.6-20.9-1.6-25.5-4-3.9-2-8.8-12.7-12.7-28-1.8-7.2-4.1-15.1-4.9-17.6-2-5.5-3.2-10.8-5.1-22.9-.8-5.2-2.2-12.4-3-16C352.6,277.1,352.7,260.4,358.6,253.9ZM327.4,824.7c-1.3.8-2.4,2.1-2.4,2.9,0,2.3-8.2,9.4-14.5,12.5-9.7,4.7-18.7,6.2-31.3,4.9-10.5-1.1-32.8-6.2-34.6-8.1a4.52,4.52,0,0,0-2.6-.9,6.07,6.07,0,0,1-3.5-2c-1-1.1-2.3-2-3-2-1.3,0-9-10.1-15.5-20.3a96.82,96.82,0,0,1-7.3-15.5c-2.8-8-3.1-9.7-3-21.2.1-8-.3-12.7-1-13.2-1.5-.9-3.6.4-10.9,6.7s-11,8.4-19.3,10.1c-18.4,4-49.6-1.4-59.5-10.2a35,35,0,0,0-5.7-4.2c-2.4-1.3-7.5-9.7-9.1-15.2-2.4-7.7-3.2-42.3-1.1-47.6a9.07,9.07,0,0,0,.7-3.2c-.4-1.9,6.8-24.7,9.8-30.7,3.6-7.3,13.6-20.1,16.4-21,2.4-.8,4.2-4.7,3.3-7.1-.8-2-4.3-1.5-14.3,2.2-6.7,2.5-8.9,2.8-20,2.8-11.8.1-12.8-.1-18-2.7C53.7,627.6,38.4,605,37.4,577c-.3-9.5.4-14.5,2.6-19a23.64,23.64,0,0,0,1.4-4.8c.4-1.7,1.2-3.4,1.7-3.7a2.93,2.93,0,0,0,.9-2.1c0-2,15.3-19.5,22-25.2,13.5-11.6,18.6-14.7,33-20.5,16.6-6.5,19.6-7.4,28.3-8.2,11.9-1.1,11.8-1.4-4-21.1-5-6.4-10.4-15.4-12.6-21.4-3.8-10-3.7-29.7.2-42.7,2.2-7.5,8.5-17.6,13.3-21.4,11-8.6,23.4-12.4,41.3-12.4,14,0,17.6.9,37,8.5,17.4,6.8,20.9,8.5,27.7,13.7,12.5,9.3,13.8,8.7,13.8-6.4,0-12.9,2-23,7-34.5,7.9-18.3,18.7-26.2,40-29.3a68.06,68.06,0,0,1,12-.9c1.9.2,6.2.6,9.5,1,12.7,1.4,32.4,10.2,39.6,17.6,3.2,3.3,5.4,4.8,7.2,4.8,2.1,0,2.8.6,3.3,2.7,2.8,12.2,7,26,9.5,32l3.1,7.2-9.5,9.1c-14.9,14.2-16.2,16.1-33.3,49.5-7.8,15.3-9.7,20.1-12.9,32-2,7.7-4.8,17.2-6.1,21.1a115.46,115.46,0,0,0-3.7,16.3c-.8,5.1-1.9,9.7-2.4,10.2-.7.7-2.3.4-5-1-8.3-4.2-30.5-5.3-41.4-2.1-15.4,4.6-29.1,20.9-35.5,42.2-2.5,8.3-2.8,10.8-2.8,22.8a170.22,170.22,0,0,0,5,39.5c3.1,12.1,13.1,32.3,23.6,47.6,9,13.2,38.4,35.3,55.3,41.5,2.6.9,3.1,1.8,4.7,9,4.8,21.2,6.8,31.2,6.8,34a24.19,24.19,0,0,0,.9,6c.5,1.6,1.9,8.5,3.1,15.4,2.5,14.1,5.5,29.6,6.9,35.3C329.7,822.7,329.6,823.2,327.4,824.7ZM483,1157.6c-.8-.5-7.1.4-9,.4-5.7,0-39.9,9-56.5,14.9-4.9,1.8-13.3,4.7-18.6,6.5s-10.4,3.8-11.6,4.4-8.5,2.9-16.4,5.1-17.3,4.9-20.9,6.1c-8.3,2.6-33.4,7.6-42.5,8.5-3.8.3-10.8,1.3-15.5,2.1-14.4,2.5-35.9,1.7-47-1.8-10.5-3.2-14.7-13.4-17.9-42.8-2.4-22.5-1.3-76.5,2.4-115.5.8-8.3,1.7-19.5,2-25,1.6-27.5,3.3-37.8,7.9-49.1,5.6-13.7,11.8-20.6,22.8-25.3,7-3,14.7-4.2,31.1-4.8,16.6-.7,25,.4,35,4.3,6.7,2.7,26.2,8.6,34.2,10.4,7.4,1.7,36.4,7.1,41,7.7,3,.4,5.6,1.9,10.5,6.2,15.2,13.2,27.7,21.6,33.9,22.7a18,18,0,0,1,6.6,3,66.12,66.12,0,0,0,8.5,5c3,1.4,7.1,3.5,9,4.5a40.67,40.67,0,0,0,9.3,3c3.1.7,5.7,1.6,5.7,2.2s-1.8,2.9-4,5.3c-4.3,4.6-8.4,13-10.2,20.4-.5,2.5-1.3,13.5-1.7,24.5l-.6,20-29,.1c-21.3.1-32.7.6-43,1.9-7.7.9-16.9,1.9-20.5,2s-12.7.6-20.2,1c-20,.9-31.5,2.8-39,6.6s-11.8,6.7-11.8,8c0,1.8,7.5.6,13-2.2,7.7-3.7,18.9-5.7,37.5-6.4,15.3-.6,42.2-2.4,66-4.5a246.37,246.37,0,0,1,39.3-.3c9.7.7,8.6-1.5,10.2,20.3,1.3,17.2,4.9,38,7.8,45.8a51.14,51.14,0,0,0,2.2,4.8Zm130.3,18.6c-4.6,4.9-17,5.9-52.8,4.4-23.4-1-34.4-3.4-52.9-11.7-12.9-5.7-15.5-8.3-18.8-19-3.2-10.1-6.6-27.1-7.2-35.9-.3-3.6-.8-10.3-1.1-15s-.6-18.4-.7-30.5c0-19.8.2-22.8,2.2-30a82.61,82.61,0,0,1,3.5-10.5c2.2-4.1,8.5-10.9,11.8-12.6,4.1-2.2,11.3-3.4,16.7-2.8,2.5.3,9,.9,14.5,1.4s22.6,1,38,1c44.8,0,53.2,1.5,57.4,10.5a51.78,51.78,0,0,1,3.1,8.8c.5,2.3,1.9,8.2,3.1,13l2.3,8.9-1.8,13.1c-1,7.3-2.1,14.8-2.6,16.7-1.7,6.6-4.8,35.5-5.4,50.3C621.7,1157.8,618.8,1170.3,613.3,1176.2ZM763.5,993.5c16.4-1.4,35.9-3.5,38-3.9,2.4-.6,26,.2,37.3,1.3,13.4,1.2,20.6,2.8,29.2,6.4,21.8,9.2,28.2,18,29.7,40.9.7,11.1-.3,19.9-5.2,46.8-8,44.1-13.8,77.1-15,85-4.4,29.6-9.9,45.2-20.3,57.5-8.2,9.7-13.2,13.4-22.6,16.7-12.8,4.4-16.4,4.1-57.1-5.3-14.3-3.2-28.2-6.4-31-7-13.2-3-42-15.2-76.5-32.6-30.6-15.5-38.7-20.5-42.3-26.3-1.4-2.3-1.4-3.3.3-11.7a155.42,155.42,0,0,0,2.5-21.5c.7-15.8,2.4-33.9,3.5-35.8.5-1.1,2.2-1.4,6.6-1.2,4.1.3,12.4-1,26.9-3.9,20.5-4.1,21.5-4.2,41-4.3,21.7,0,31.3,1.4,49,7.2,9.4,3.1,31.6,14.1,41.4,20.6,6.1,4.1,7.2,4.5,9.4,3.5,1.8-.8,2.3-1.7,1.9-3.1-1.1-4.4-31.7-21.3-49.3-27.2-34-11.5-60.4-11.7-107.9-.7a60.29,60.29,0,0,1-11.4,1.1h-6.9l.6-3.8c.3-2,1.2-7.5,2.1-12.2,3.1-17.5,3.1-21.9.1-35.2a189.59,189.59,0,0,0-5.2-19.2c-1.8-4.8-2.3-7.4-1.6-8.4.5-.9,5.2-2.8,10.4-4.3s12.7-3.9,16.7-5.3a75.28,75.28,0,0,1,8.5-2.6c1.2,0,17.1-4.7,27-8,5.1-1.7,6.6-1.8,13.8-.8C715.4,997.4,721.3,997.1,763.5,993.5Zm54.3-130.3c-2.4,2.1-2.9,3.2-2.4,5.1.4,1.7-.3,3.7-2.3,6.8-8.5,13.2-12.3,19.3-14.2,23.1-3.3,6.6-15.5,23.5-22.8,31.7-7,7.9-21.2,19.8-33.3,27.9-7.3,4.9-43.7,26.7-49.3,29.5-3.2,1.6-20.6,7.1-29.5,9.3-3,.7-8,2.3-11,3.4-12.1,4.6-16.1,5.7-25.3,7-3.5.5-6.4,1.5-7.1,2.5-1.1,1.6-1.8,1.6-10.2-.1-7.5-1.5-14.5-1.8-43.9-1.9-20.6-.1-40-.6-47.1-1.4-9-.9-13.5-1-17.9-.2-8.7,1.6-11.2,1.4-11.8-.8-.3-1.4-2.2-2.4-6.3-3.6-5.7-1.5-13.4-5.1-29.9-13.8a162.86,162.86,0,0,1-36.9-26.6c-27.7-26.7-35-35.5-42.3-51.1-2.5-5.2-4.9-10.3-5.4-11.3-2.7-5-18.3-39.8-20.1-44.6-5.6-15.3-8-23-10.3-33.3-1.4-6.2-3.2-13.8-4-16.8a44.81,44.81,0,0,1-1.5-8.8,78.94,78.94,0,0,0-1.9-11.6c-1.1-4.4-2.9-13.7-4.1-20.6-1.8-10.6-5.6-28.5-9.2-43.2-1-4.3-3.7-6.5-13.5-10.9-18.9-8.4-40.1-25.5-47.2-37.9-1.8-3-5-8.4-7.3-12-12.5-19.8-19.8-48.5-18.5-72.5a67.37,67.37,0,0,1,19.2-44.1c5.7-5.7,8.2-7.5,13.5-9.4,5.7-2,7.6-2.2,17-1.7,6,.3,12.1,1.2,14.2,2.1,4.9,2.1,8,6.7,8.6,12.8.4,4.2.9,5.1,3.5,6.4,2.2,1.2,3.6,1.3,5.2.6,2-.9,2.3-2.4,3.9-17.3,2.3-21.4,2.4-22.1,9-44.9,4.5-15.6,7.1-22.6,13.2-35,14.3-29.3,22.3-40.7,37.4-53.5l9.1-7.7,7.7,1c4.2.6,13.8,1.4,21.2,1.7s20.3.9,28.5,1.5,22.4,1.5,31.5,2,23,1.4,31,1.9,26.4.7,41,.4c21.5-.5,28.6-.3,37.5,1.1,20,2.9,80.5,3,127.5.1,2.5-.2,12.2-.6,21.5-1s22.4-1.5,29-2.5,14.5-2.1,17.5-2.5a28.77,28.77,0,0,0,10.5-3.4,44.89,44.89,0,0,1,5.9-3c.4-.1,3.4,1.4,6.5,3.3a286.73,286.73,0,0,1,28.9,21.7c8.4,7.5,19,24.4,24.9,39.4s9.6,26.2,12.3,37.8c2.4,10.2,3.1,42.9,1.1,49-1.1,3.2-1,4.1.4,6.3,1.3,2,2.3,2.5,4.8,2.2,3-.3,3.3-.7,5.4-7.3,1.9-6,3-7.7,7.9-12.2,8.6-8,19.2-11.2,36.4-11.3,9.3,0,20.7,3,26.4,7,12.5,8.8,15.1,14.3,15.1,32,0,10-.5,13.5-3.7,26.3-6.1,24-17.9,55.4-29.5,78.2-5.9,11.6-7.9,14.3-16.8,21.8-13.6,11.6-24.7,16.7-36.1,16.7-8.5,0-9.2.4-9.9,5.8-.7,5.1-3.5,15.4-6.6,24.3-1,3.1-3,10.5-4.4,16.5-3.7,15.8-5,20.2-7.9,26.4-1.4,3-2.6,6.3-2.6,7.2a35.86,35.86,0,0,1-1.9,7c-1.1,2.9-3.1,9.3-4.7,14.3C832.8,832.9,822.1,859.4,817.8,863.2Zm327.3-327.5c-3,6.3-10,14.3-12.6,14.3-.8,0-2.2,1.4-3.1,3.2-2.2,4.2-10.5,13-17.4,18.3-6.4,4.9-16.5,10.5-19,10.5a5.91,5.91,0,0,0-3.4,1.9,9.09,9.09,0,0,1-4.2,2.5c-2.8.7-3.1,2.7-.6,4.8,1.2,1.1,3.8,1.6,8.5,1.6,16.7.1,28.2,8.6,33.9,25,1.9,5.6,2.3,8.7,2.2,19.2,0,14.2-.9,18.2-6.6,29.6-4.7,9.6-13.1,18.8-20.1,22.2a54.64,54.64,0,0,1-12.6,3.6c-4.2.7-8.3,1.6-8.9,2s-1.2,2.3-1.2,4.3c0,3.1.8,4.3,5.8,8.9a35.38,35.38,0,0,1,8.8,11.6c2.8,6,2.9,7,2.8,19.3-.1,11.8-.4,13.8-3.3,22.3-7.5,22.2-14.6,32.4-28.9,42.1-18.7,12.5-30.1,17.3-41.2,17.2-7.9,0-17.6-1.8-22.2-4.2s-7.6-2.4-9.9-.3c-1.7,1.5-1.6,2,1.9,8.6,3.2,6.1,3.7,8.1,4,15.2a38.86,38.86,0,0,1-8.1,26.6c-6.8,9-24.7,26.2-33.7,32.5-11.3,7.7-17.1,10.2-28.6,12.6-25.6,5.1-56.3-.3-78.8-13.8-10.2-6.2-10.6-6.6-16.1-15.2-5-7.7-6.7-11.4-6.2-13.4.5-2.2,8.4-22.2,11.3-28.4,1.8-3.9,8-23.5,12.9-40.3,1.9-6.9,5.5-17.7,8-24a173.84,173.84,0,0,0,6.4-21,142.81,142.81,0,0,1,3.6-14c1.5-4.1,5.6-18.4,7.3-25.5.8-3.1,4.1-5.5,7.7-5.5a61.08,61.08,0,0,0,9.3-2c12.5-3.5,31.7-17,39.5-27.9,3.7-5.2,12.9-22.4,16.5-31.1,11-26.1,21.5-58.2,24.6-74.9,5.5-29.4-4-48.2-28.8-56.8-10-3.4-18.8-4.4-30.4-3.3s-20.9,3.8-27.6,8c-7.1,4.5-7.6,4-7.6-8.4,0-12.1-1.5-20.2-7.1-37.9-10-31.7-26.7-58.9-42.6-69.3a77.26,77.26,0,0,1-10.4-8,55.05,55.05,0,0,0-9.7-6.8c-6.4-3.2-6.9-4.2-4.3-7.4,3-3.8,8.9-15.9,10.1-20.9.9-3.4,2.7-5.7,9.8-12.3,4.8-4.4,11.4-10,14.7-12.5,7.8-5.9,28.4-16,35.5-17.4,3-.6,6.4-1.3,7.5-1.5s9-.3,17.5-.1c11.4.2,17.5.9,23.1,2.3,17.3,4.6,32.7,16.1,39.1,29,2.9,5.8,3.2,7.4,3.1,14.3-.1,4.3-.9,9.4-1.8,11.4a27.34,27.34,0,0,0-1.5,4.6c0,1.2,3.8,4.9,5,4.9.6,0,3.6-2.8,6.8-6.1,8.8-9.4,25.3-16.9,37.5-16.9,9.9,0,28.8,5,39.6,10.5,6.9,3.5,20.2,15.4,23.7,21.3s4.4,9.6,4.4,19.3c0,5.7-.4,7.2-3.6,12.5a52.41,52.41,0,0,1-6.7,9.1l-3.1,3.3,2.1,2.7c1.4,1.9,2.8,2.7,4.4,2.6,1.3-.2,6-.7,10.4-1.1a57,57,0,0,1,16.9.5c9.1,1.4,22.8,6.4,25.4,9.2,7,7.8,17.5,26.3,21.6,38.1C1151.3,505,1150.7,523.5,1145.1,535.7Z" transform="translate(-29.28 -14.34)"/>
    <path id="brow_r" d="M713.4,479.9c-5.4-11-9.6-16.2-18.7-23-16.7-12.6-32.9-17.5-51.2-15.2-15.7,1.9-19.2,3.1-27.3,10-6.4,5.5-8.2,8.7-8.2,15.1,0,8.2,7,15.6,16.5,17.6,1.7.3,9.4.8,17.2,1.1,29.7,1,47.8,2.8,54.7,5.5,5.6,2.1,12.3,7.9,14,12,1.8,4.5,4.2,5.2,7.1,1.9C721,501.1,719.6,492.4,713.4,479.9ZM704,488c-7.6-4.9-26.3-8-48.4-8-28.6-.1-37.8-2.3-38.8-9.2-.8-5.3.9-9.4,5.8-13.7,5.9-5.2,13.7-8.1,24.4-9.1,13.7-1.2,15.3-1.1,22.1,1.1,8,2.6,10.2,3.8,18.5,9.6,11.3,7.9,18,16.2,21.9,27.4C711.4,491.3,710,491.8,704,488Z" transform="translate(-29.28 -14.34)"/>
    <path id="cheek_l" d="M428.7,612.5c-.9-14.4-4.1-22.1-13.5-31.7-9.1-9.3-20-14.9-30.7-15.6l-7.6-.5-3.7,4a36.22,36.22,0,0,1-8.8,6.6c-7.3,3.7-20.4,18.1-25.1,27.6-3.3,6.6-3.8,8.3-4.1,16.8s-.2,10.2,2.2,16.1c3.7,9.5,10.2,17.4,16.9,20.5,13.9,6.6,29.3,7.2,44.9,1.8,10.8-3.7,13.8-5.2,18.3-9.3,4.5-3.9,6.9-8.5,9.6-18.5C428.9,623.8,429.2,620.9,428.7,612.5Zm-14.3,26.8c-3.4,5.1-11.5,10.1-22.6,13.8-8.1,2.8-10.2,3.1-16.9,2.6-9.9-.6-16.8-3.7-22-9.6-7.3-8.2-8.4-11.2-8.4-23.1,0-12.7,1.3-16.1,10.4-27.3s16.6-17,24.8-19c3-.7,4.8-1.8,4.9-2.7s.2-1.8.2-2.3c.3-1.3,3.7-.7,9,1.8,7.2,3.3,19.8,13.8,22.1,18.4C423.3,606.3,422.6,626.6,414.4,639.3Z" transform="translate(-29.28 -14.34)"/>
    <path id="eye_l" d="M524.7,517.3A40.39,40.39,0,0,0,504,502.9c-7.2-2-15-2.5-15-.9,0,.6-1.2,1.5-2.7,2.2-10.6,4.3-15.7,7.4-19.8,12.3-2.5,2.9-4.5,5.5-4.5,5.9a108.06,108.06,0,0,1-5.1,9.6c-5.1,9-5.1,9.1-5.8,20.3-.7,13.1.2,24.9,2.2,28a34.36,34.36,0,0,1,2.5,5.4c.6,1.8,3.5,6.9,6.6,11.5,6,9.1,11.1,13,19.3,14.9,6.6,1.4,16.9,1.5,23.5,0,10-2.2,22.9-13,27.6-23.1C539.6,574.1,534.9,531.4,524.7,517.3Zm-16,78.7-2.4,8.5-5.4,1.8c-4.9,1.7-5.6,1.7-8,.3a11.19,11.19,0,0,0-4.2-1.6c-2.6,0-8.2-6.6-10.1-11.9-2.5-7-1.6-15.5,2.7-25.8,2.7-6.5,3.9-8.1,6.7-9.5,5.4-2.6,10-2.3,14.7,1.2C511.2,565.2,513.4,579,508.7,596Zm14.4-5.5c-4.3,6.4-5.1,5.7-4.4-3.8,1-13.7-2.3-23.6-9.8-30a28,28,0,0,0-18.7-6.7c-5.2,0-5.8.2-9.6,4.3-8.9,9.4-12.9,31-7.8,42.1,2.5,5.5,2.2,6.8-.8,4.1-3.8-3.4-9.1-12.5-11.7-19.8-3.1-8.9-4.1-28.5-1.8-35.3,2.7-8,11.8-24.5,15.2-27.4,4.2-3.8,11.8-7.6,16.6-8.5,2.1-.4,4-1.1,4.3-1.6.7-1.3,4.1-1.1,10,.4a28.73,28.73,0,0,1,9.7,5.2c8,6.6,11.6,15.9,14.3,36.2C531,567.8,529.2,581.6,523.1,590.5Z" transform="translate(-29.28 -14.34)"/>
    <path id="cheek_r" d="M859.7,617.8c-3.2-10.1-10.7-20.4-17.4-24.1-7-3.8-24.5-5.8-33.1-3.7-6,1.4-20.6,9.5-24.7,13.6-8.6,8.7-13.7,22.5-13.8,37.4-.1,11.7,1.9,17.2,8.6,23.6,6.2,6.1,10.1,8.5,19.3,12,22.3,8.6,42.3,5.5,54.4-8.2,3.4-3.9,4.8-6.8,7.7-15.4C863.4,644.8,862.9,628.1,859.7,617.8Zm-14.5,45.3c-8.6,9.3-11.3,10.4-25.7,10.3-10.5,0-12.8-.4-18.8-2.7-16.4-6.4-23.2-15.6-22.2-30.3.7-11.8,3.2-19.4,8.8-26.5,1.2-1.6,3.2-4.1,4.4-5.7,3.4-4.5,19.7-11.8,27-12.1a79.21,79.21,0,0,1,9.9,1c9.4,1.3,11.9,2.5,16.1,7.7,6.8,8.5,10.3,19.5,10.3,32.6C855,648.1,852.1,655.7,845.2,663.1Z" transform="translate(-29.28 -14.34)"/>
    <path id="eye_r" d="M675.4,526.4c-6.3-13.3-8.6-16.2-16.1-20.4-5.6-3.2-15.9-5.2-17.5-3.4-.5.4-3.6.8-7,.9-17.5.4-27.2,12-30.6,36.6-1.5,11.2-1.5,12.7.2,24.6,2.3,16.6,4.1,23.4,8.2,30.8,3.9,7.1,7.1,9.7,18.4,15,7.5,3.5,9.4,4,16,4,6.4,0,8.2-.4,12.2-2.7,8.7-5.2,17.3-17.4,22.6-32.1,2.3-6.3,2.6-8.9,2.6-20.2C684.5,545,684.9,546.5,675.4,526.4Zm-17.5,54.4a42.27,42.27,0,0,1-8.4,20.2c-1.9,2.6-3.5,5.6-3.5,6.5,0,2.5-4.7,1.6-13.5-2.7-7.9-3.7-8.6-4.7-11.6-16.6-1.9-7.5-1.9-8.3-.4-16.8,2.5-14.3,3.2-15.5,12.5-20.2,4.1-2,12.3-1,16.4,2.2C656.2,558.6,659.5,569.2,657.9,580.8Zm11.4,7.6c-5.8,10.3-8.7,11.8-5.3,2.8,1.5-3.9,2-7.7,2-15,0-8.6-.3-10.4-2.9-15.9a26.28,26.28,0,0,0-8.1-10.2c-6-4.8-10.2-6.1-19.1-6.1-5.7,0-7.1.4-10.6,2.9-6.5,4.7-10.3,11.5-10.3,18.5a10.83,10.83,0,0,1-1,4.6c-2.7,4-4.6-7.6-3.6-21.6,1.2-17,6.5-28.7,16-35.2,4-2.6,5.8-3.2,10.5-3.2,3.1-.1,6.7-.7,8.1-1.5,3.4-2,4.7-1.8,10.7.9,4.1,1.9,5.9,3.6,8.9,8.3,5.2,8.2,11,21.7,12.5,29.1C679.6,559.7,676.7,575.3,669.3,588.4Z" transform="translate(-29.28 -14.34)"/>
    <path id="ear_r" d="M920.5,576c-1.1,0-4.8,1.7-8.3,3.7-12.4,7.3-21.7,23.5-24.6,42.8-1.1,7.7-1.3,8-4,8.3-1.6.2-3.3-.1-3.9-.7-2.6-2.6.9-21.5,6-31.4,6.6-13.2,15.3-22.8,24.7-27.3,7.1-3.4,13.3-4.3,15.3-2.3C928,571.4,924.5,576,920.5,576Z" transform="translate(-29.28 -14.34)"/>
    <path id="ear_l" d="M318.2,633.4c-2.4,5.4-7.9,2.3-11-6.2-2.5-6.7-8.4-16.2-13.2-21a50.85,50.85,0,0,0-9.4-6.6c-6-3.3-8.8-4.4-17.2-6.6-4.8-1.2-8.6-5.6-6.3-7.1,1.7-1.1,9.5-.3,16.9,1.8,17.7,4.9,33.2,19.7,39.6,38C319.1,629.9,319.2,631.3,318.2,633.4Z" transform="translate(-29.28 -14.34)"/>
    <path id="mouht_n_nose" d="M794.9,754c-2.5-24.5-3.3-30.1-5.9-37.7-4.2-12.3-15.5-29.9-25.2-38.9-8.2-7.7-10.7-9.2-22-12.9-10.2-3.4-12.3-3.8-21-3.7a103.14,103.14,0,0,0-17,1.8c-16.4,3.6-41.7,14.3-48.1,20.3-3.7,3.5-3.9,3.5-5.3,1.7a8.07,8.07,0,0,1-1.4-4.1c0-2.6-4-14.7-6.5-19.6-5.9-11.6-21-25-36.2-32.1-9.4-4.4-14.5-5.4-31.8-6.2-10.2-.4-13.7-.1-23,1.9-14.1,3-14.9,3.3-25.8,10.8-16.9,11.5-28.5,24.4-33.6,37.5-1,2.6-2.6,4.8-3.4,5s-6.9-2.1-13.4-5.1c-14.4-6.6-27.8-9.8-39.8-9.3-21.1.8-40.1,7.2-46.6,15.5-1.3,1.7-4.5,5.7-7.1,8.9s-8.3,11.3-12.7,18.1c-10.4,16.2-15.3,29.7-15.9,44.6-.5,13.2,3.1,45,7.3,63.5,1.4,5.8,2.9,13.2,3.6,16.5,1.9,9.7,10.6,33.3,15.1,40.9,15.3,25.8,39.9,54,64.6,74.1,4,3.3,9.6,7.9,12.5,10.3a119.43,119.43,0,0,0,28.3,17.6c9,3.8,33.5,11.2,45.4,13.7,8.1,1.7,51.5,1.7,64,0,4.7-.6,14-1.8,20.7-2.6,12.9-1.5,18.3-2.7,27.6-5.6a33.42,33.42,0,0,1,8-1.9,5.9,5.9,0,0,0,3.3-.9c.5-.5,3.2-1.1,5.9-1.4,7-.6,20.3-5.7,29.7-11.4,11.2-6.8,28.2-23.8,39.1-39,4.8-6.7,8.7-12.5,8.7-12.8s1.5-2.5,3.3-4.8a96.28,96.28,0,0,0,6.6-9.7c6.2-10.6,11.9-19.8,17.7-28.6,1.9-2.8,3.4-5.7,3.4-6.5s1.3-3,2.9-4.9c7.7-9.4,18.7-40.5,21.6-61C794.7,780.7,795.7,762.7,794.9,754Zm-282-97.4c6.8-7.2,20.6-17.2,29.6-21.6,10.3-5,36.5-7.4,49.9-4.6,25,5.3,45.4,27,49.5,52.6,1.6,10.7,1.8,31.6.2,36.5-5.3,16.7-12.6,29-24.1,40.5-7,7.1-10.2,9.4-18.5,13.6-14.1,7.2-20.4,8.8-35.5,8.8-14.2.1-17.9-.9-34-8.8-14.6-7.2-20.7-14.2-26.8-30.6C489.9,707.3,493.3,677.3,512.9,656.6Zm276,114.9a288.75,288.75,0,0,1-3.5,29c-1.4,7.5-10.9,35-14.4,41.8-3.8,7.6-18.8,32-35.4,57.5q-32.1,49.65-60.1,62.3c-8,3.6-38.3,11.1-55.5,13.7-37.4,5.8-70.9,7.6-87.2,4.8-19.8-3.4-39.1-9.3-52.3-15.9-7.9-3.9-10.4-5.7-23.6-16.7-3.6-3-9.1-7.4-12-9.7-10.4-8.1-37.5-37.1-46-49.3-20.9-29.7-27.3-48.3-35-102-3.8-26.6-3.6-38.1,1-52.5,3.5-11,5.6-15.2,12.8-25.8,19-27.5,22.9-31.2,37.1-34.7,15.1-3.7,22.7-4.4,31.3-3.1a132.63,132.63,0,0,1,38.7,12.9l3.2,1.7V701c0,16.8,1.2,23.6,7.9,44,3.5,10.7,10.4,21,17.5,26.2,4.9,3.6,19.6,11,26.3,13.2,12.8,4.2,37.1,5,48.8,1.4,7.9-2.3,21.4-8.7,26-12.2,6.2-4.8,14.3-13.4,20.3-21.4,10.8-14.6,16.2-29.1,16.7-44.5.2-8.5,0-8.1,9.5-17.6,8.2-8.1,37-20.1,53-22,11-1.4,15.3-1.2,22.8.9,10.8,3,19.9,8,25.7,14.2,5.4,5.7,14,17.8,17.2,24.3a91.3,91.3,0,0,1,6.7,23C789.4,755.8,789.7,760.6,788.9,771.5Z" transform="translate(-29.28 -14.34)"/>
    <path id="mouth-2" data-name="mouth" d="M733.9,764.3c-5.5-2.5-10.1-4.4-10.2-4.2-.8.9-9.8,18.1-15.5,29.4a173.68,173.68,0,0,1-33.6,46c-13.1,13-20.7,18.5-36.3,26.3-15.4,7.8-36,12.2-57,12.2-10.4,0-14.2-.4-37.3-3.6a210.53,210.53,0,0,1-63.8-19.8c-27.5-13.8-36.3-22.2-50.1-47.5-4.7-8.8-12.9-25.9-15.2-31.8-.7-1.8-1.5-2.4-2.7-2-17.8,5.9-22.1,6.8-24.9,5.5-5-2.4-3.4-4,7.2-7,5.5-1.6,11.6-3.9,13.7-5.3,4.9-3.3,8.8-8.5,9.5-13,.7-4,2-5,5.8-4.1s4.1,4.5,1.1,10.4c-1.4,2.8-2.6,6.4-2.6,7.9,0,4.5,3.8,14,8.9,22.3.5.8,3.7,7.3,7.2,14.5,6.9,14.6,11.9,21.6,20.5,29.1,6.7,5.8,13.5,9.8,28.4,17.1,24.1,11.6,51.5,17.9,87.1,19.9,19.6,1.1,42.6-3.4,59.2-11.7,23.5-11.8,41.5-28.6,59.1-55.3,5.1-7.8,20.1-37.2,22-43.4.6-1.7-.2-2.7-4.3-5.7-5.3-3.9-9.2-9-8.4-11.2,1-2.5,4.3-1.2,10.3,4.1,7,6.3,16.5,12.1,27,16.5,10.1,4.3,10.5,4.5,10.8,7C750.3,770.4,744.9,769.5,733.9,764.3Z" transform="translate(-29.28 -14.34)"/>
  </g>
</svg>
